<svg width="48" height="48" viewBox="0 0 48 48" fill="none" xmlns="http://www.w3.org/2000/svg">
  <defs>
    <linearGradient id="dhanda_bg" x1="0%" y1="0%" x2="100%" y2="100%">
      <stop offset="0%" stop-color="#1e1035" />
      <stop offset="50%" stop-color="#0d1127" />
      <stop offset="100%" stop-color="#080816" />
    </linearGradient>
    <linearGradient id="dhanda_border" x1="0%" y1="0%" x2="100%" y2="100%">
      <stop offset="0%" stop-color="#a855f7" stop-opacity="0.8" />
      <stop offset="50%" stop-color="#38bdf8" stop-opacity="0.4" />
      <stop offset="100%" stop-color="#6366f1" stop-opacity="0.1" />
    </linearGradient>
    <linearGradient id="dhanda_ribbon" x1="0%" y1="100%" x2="100%" y2="0%">
      <stop offset="0%" stop-color="#7c3aed" />
      <stop offset="35%" stop-color="#9333ea" />
      <stop offset="70%" stop-color="#a855f7" />
      <stop offset="100%" stop-color="#38bdf8" />
    </linearGradient>
    <linearGradient id="dhanda_arrow" x1="0%" y1="0%" x2="100%" y2="100%">
      <stop offset="0%" stop-color="#38bdf8" />
      <stop offset="50%" stop-color="#06b6d4" />
      <stop offset="100%" stop-color="#3b82f6" />
    </linearGradient>
    <filter id="dhanda_glow" x="-20%" y="-20%" width="140%" height="140%" filterUnits="userSpaceOnUse">
      <feGaussianBlur stdDeviation="2" result="blur" />
      <feComposite in="SourceGraphic" in2="blur" operator="over" />
    </filter>
  </defs>

  <rect x="1.5" y="1.5" width="45" height="45" rx="13" fill="url(#dhanda_bg)" stroke="url(#dhanda_border)" stroke-width="1.5" />
  <circle cx="24" cy="24" r="16" stroke="rgba(168, 85, 247, 0.15)" stroke-width="1" stroke-dasharray="2 3" />

  <g filter="url(#dhanda_glow)">
    <rect x="12" y="12" width="5.5" height="24" rx="2.75" fill="url(#dhanda_ribbon)" />
    <path d="M17.5 14.5C25.5 14.5 32 18.5 32 24C32 29.5 25.5 33.5 17.5 33.5" stroke="url(#dhanda_ribbon)" stroke-width="5" stroke-linecap="round" />
    <path d="M20 28L28 20M28 20H22M28 20V26" stroke="url(#dhanda_arrow)" stroke-width="3.2" stroke-linecap="round" stroke-linejoin="round" />
    <circle cx="36" cy="12" r="2.2" fill="#38bdf8" />
  </g>
</svg>
